<svg width="32" height="32" viewBox="0 0 32 32" fill="none" xmlns="http://www.w3.org/2000/svg">
<path fill-rule="evenodd" clip-rule="evenodd" d="M7.14868 6.98864C6.95601 7.07837 6.7804 7.245 6.68056 7.43287C6.57739 7.62695 6.57739 8.05306 6.68056 8.24714C6.78161 8.43731 6.95803 8.60333 7.1547 8.69338L7.32296 8.7704L8.82145 8.76122C10.2853 8.75223 10.3229 8.7504 10.4479 8.68314C10.6217 8.58964 10.7999 8.40477 10.8874 8.2272C10.9861 8.02698 10.988 7.66327 10.8916 7.456C10.804 7.26775 10.6153 7.08212 10.4159 6.9881L10.2559 6.91264H8.78395H7.31195L7.14868 6.98864ZM13.6047 7.55376C13.1648 7.64224 12.8376 8.07789 12.8725 8.52861C12.8994 8.87696 13.1052 9.17168 13.4239 9.31837L13.5839 9.392L17.264 9.408L20.944 9.424L21.0981 9.50276C21.2864 9.59892 21.4862 9.80989 21.5788 10.0104L21.6479 10.16L21.6568 14.4683L21.6657 18.7766L21.5288 18.8479C20.9454 19.1519 20.4306 19.6839 20.1198 20.304C19.9937 20.5556 19.8576 20.9632 19.8234 21.192L19.8007 21.344H19.0043H18.208V21.2516C18.208 21.2007 18.1713 21.0316 18.1264 20.8756C17.7988 19.7355 16.9206 18.8769 15.7495 18.552C15.5429 18.4947 15.4151 18.4837 14.9439 18.4829C14.3213 18.4818 14.0752 18.5274 13.6211 18.7281C12.6056 19.1766 11.8684 20.0873 11.6762 21.1307L11.6371 21.3427L8.81854 21.3513C6.12625 21.3596 5.99493 21.3627 5.88795 21.4204C5.66417 21.5411 5.53825 21.6675 5.43691 21.8733C5.34312 22.0638 5.33675 22.0976 5.35029 22.3312C5.36686 22.6177 5.4508 22.7986 5.64715 22.971C5.90936 23.2012 5.63838 23.183 8.95163 23.1926L11.9353 23.2013L12.0041 23.3366C12.4144 24.1436 13.1921 24.7439 14.1759 25.0132C14.5007 25.1021 15.3823 25.0943 15.7315 24.9994C16.3886 24.8209 16.8026 24.5801 17.2799 24.0988C17.5254 23.8513 17.6591 23.6849 17.7759 23.4814L17.9359 23.2028L19.0154 23.2014L20.0949 23.2L20.1727 23.3535C20.2874 23.5799 20.6034 23.9908 20.8191 24.1939C21.2249 24.5762 21.7237 24.8456 22.336 25.0132C22.497 25.0573 22.6667 25.0702 23.0879 25.0706C23.5812 25.0709 23.6608 25.063 23.9416 24.9849C24.5313 24.8209 25.0177 24.5401 25.4349 24.1229C25.6532 23.9047 25.9588 23.4905 26.0496 23.2899L26.0885 23.2037L27.4362 23.1928L28.7839 23.1818L29.0331 23.0949C30.0434 22.7422 30.7316 22.0087 30.9944 21.0043C31.0478 20.8005 31.0529 20.5373 31.064 17.488C31.0761 14.1428 31.0639 13.6449 30.9576 13.1289C30.624 11.51 29.4942 10.2157 27.9485 9.68196C27.2538 9.44208 26.8762 9.40807 24.907 9.40804L23.366 9.408L23.2681 9.19895C22.9061 8.42528 22.214 7.84868 21.36 7.60925L21.104 7.53747L17.424 7.53162C15.3999 7.52839 13.6813 7.53834 13.6047 7.55376ZM23.5199 14.8792C23.5199 17.7212 23.5283 18.4684 23.5599 18.4774C23.582 18.4837 23.723 18.5176 23.8733 18.5527C24.8322 18.7768 25.6879 19.4783 26.1091 20.3856C26.2216 20.628 26.3679 21.1186 26.3679 21.2536V21.348L27.416 21.338L28.4639 21.328L28.624 21.2428C28.817 21.1399 28.9922 20.9627 29.0932 20.768L29.1679 20.624L29.1765 17.832L29.185 15.04L27.6565 15.0397L26.128 15.0394L25.9679 14.9635C25.3974 14.693 25.2502 13.952 25.6738 13.483C25.736 13.4142 25.8564 13.3224 25.9414 13.2789L26.096 13.2L27.5599 13.1911C28.5097 13.1853 29.0239 13.1709 29.0239 13.1501C29.0239 13.0738 28.8453 12.7028 28.7146 12.5077C28.5433 12.2519 28.179 11.8921 27.9309 11.7335C27.7082 11.5912 27.4466 11.4737 27.152 11.3836C26.9374 11.318 26.8564 11.3147 25.2239 11.3038L23.5199 11.2924V14.8792ZM4.73576 11.9659C4.35025 12.0832 4.09032 12.4449 4.09032 12.864C4.09032 13.2272 4.27659 13.5332 4.59739 13.6971L4.75195 13.776L7.47736 13.7845C10.1652 13.7929 10.2052 13.7921 10.3797 13.7269C10.6205 13.6368 10.859 13.378 10.9316 13.1281C11.0621 12.6794 10.8471 12.2119 10.4185 12.0124L10.2559 11.9366L7.53595 11.9391C6.03995 11.9404 4.77985 11.9525 4.73576 11.9659ZM1.50395 17.0262C1.22408 17.1533 1.01784 17.4134 0.963373 17.7082C0.884621 18.1342 1.07777 18.5205 1.47195 18.7252L1.61595 18.8H5.64795H9.67995L9.81509 18.7278C10.4902 18.3671 10.5157 17.4485 9.86126 17.0638L9.71195 16.976L5.67995 16.9685C1.67998 16.9609 1.6468 16.9614 1.50395 17.0262ZM14.5973 20.3691C14.1443 20.4674 13.7456 20.8268 13.5692 21.296C13.4679 21.5652 13.4679 21.9868 13.5692 22.256C13.9487 23.2648 15.1932 23.5465 15.9458 22.7939C16.7483 21.9914 16.3636 20.6292 15.2612 20.3693C15.0137 20.311 14.8651 20.3109 14.5973 20.3691ZM22.7839 20.3636C22.0565 20.5216 21.5664 21.2331 21.6678 21.984C21.7283 22.4326 22.0635 22.8896 22.4745 23.084C23.2893 23.4695 24.2657 23.0069 24.4949 22.1269C24.6224 21.6374 24.4816 21.1285 24.118 20.765C23.9069 20.5539 23.6959 20.4341 23.4212 20.3693C23.1803 20.3125 23.0254 20.3112 22.7839 20.3636Z" fill="#00DBBC"/>
</svg>
